<svg xmlns="http://www.w3.org/2000/svg" xmlns:xlink="http://www.w3.org/1999/xlink" width="500" zoomAndPan="magnify" viewBox="0 0 375 374.999991" height="500" preserveAspectRatio="xMidYMid meet" version="1.0"><defs><clipPath id="facfd36c01"><path d="M 140 121 L 329.988281 121 L 329.988281 339.742188 L 140 339.742188 Z M 140 121 " clip-rule="nonzero"/></clipPath><clipPath id="8d74964829"><path d="M 45 35.242188 L 233 35.242188 L 233 212 L 45 212 Z M 45 35.242188 " clip-rule="nonzero"/></clipPath></defs><g clip-path="url(#facfd36c01)"><path fill="#000000" d="M 237.464844 261.820312 C 265.003906 254.375 287.320312 242.65625 304.390625 226.703125 C 321.449219 210.746094 329.988281 190.101562 329.988281 164.742188 L 329.988281 121.578125 L 233.761719 121.757812 L 233.761719 168.324219 C 233.761719 181.746094 227.492188 192.476562 214.949219 200.535156 C 202.410156 208.578125 184.425781 212.609375 160.976562 212.609375 L 140.933594 212.609375 L 140.933594 275.117188 L 199.277344 339.773438 L 310.304688 339.773438 L 237.464844 261.820312 " fill-opacity="1" fill-rule="nonzero"/></g><g clip-path="url(#8d74964829)"><path fill="#000" d="M 232.851562 120.984375 L 232.851562 35.25 L 45.027344 35.25 L 45.027344 211.226562 L 140.019531 211.226562 L 140.019531 120.984375 L 232.851562 120.984375 " fill-opacity="1" fill-rule="nonzero"/></g></svg>