<?xml version="1.0" encoding="UTF-8"?>
<svg version="1.1" xmlns="http://www.w3.org/2000/svg" width="512" height="512">
<path d="M0 0 C1.52609849 -0.00445668 1.52609849 -0.00445668 3.08302724 -0.0090034 C6.49671519 -0.01768414 9.91036805 -0.01919813 13.32406616 -0.02069092 C15.7699796 -0.02531957 18.21589232 -0.03034429 20.6618042 -0.03573608 C27.31079632 -0.04885843 33.95977472 -0.05534175 40.60877657 -0.05974674 C44.76363407 -0.06251236 48.91848925 -0.06675033 53.07334518 -0.07125092 C64.58568233 -0.08344219 76.09801763 -0.09374129 87.6103611 -0.09712601 C88.34682112 -0.09734557 89.08328115 -0.09756514 89.84205814 -0.09779136 C90.94933781 -0.09811878 90.94933781 -0.09811878 92.07898676 -0.09845281 C93.5747424 -0.09889627 95.07049803 -0.09934283 96.56625366 -0.09979248 C97.30819443 -0.10001391 98.0501352 -0.10023534 98.81455903 -0.10046348 C110.82811069 -0.10440882 122.84160159 -0.12185539 134.85512979 -0.145152 C147.20072909 -0.1688985 159.54629795 -0.18132938 171.89192045 -0.18249393 C178.81884596 -0.18340892 185.74569234 -0.1891166 192.67259598 -0.20731354 C199.1913309 -0.22437827 205.70994253 -0.22594252 212.22870255 -0.21717453 C214.61712547 -0.21640491 217.0055565 -0.22073686 219.39395905 -0.23063278 C222.66337006 -0.24338108 225.93225224 -0.23745943 229.20166016 -0.22705078 C230.60758799 -0.23913539 230.60758799 -0.23913539 232.0419184 -0.25146413 C243.77412304 -0.16456262 254.8390443 3.11934354 263.34896851 11.46075439 C268.48302603 17.14293193 268.48302603 17.14293193 269.98178101 20.14044189 C271.83803101 19.49075439 271.83803101 19.49075439 273.73178101 18.82794189 C296.26717167 11.42145057 318.67481265 11.23134686 340.20053101 21.70684814 C359.86787117 32.63033218 372.88674383 48.96317556 379.35678101 70.45294189 C380.72231008 75.68163442 381.74566218 80.74050692 381.98178101 86.14044189 C382.02174194 86.81848877 382.06170288 87.49653564 382.10287476 88.19512939 C382.73229094 108.41049634 375.73596931 127.36453354 362.48178101 142.51544189 C361.0002913 144.07490474 359.50140685 145.61811689 357.98178101 147.14044189 C357.36947632 147.76434814 356.75717163 148.38825439 356.12631226 149.03106689 C341.10004343 163.2563619 320.95127734 168.60777166 300.75131226 168.36700439 C291.84644215 168.08259577 283.39963871 165.98899793 274.98178101 163.14044189 C274.9269698 172.50340724 274.91554091 181.86515578 274.95843506 191.22818661 C274.97701592 195.5766563 274.98104307 199.92409469 274.95101929 204.27252197 C274.92255389 208.47470229 274.93335121 212.67516664 274.97058105 216.87726021 C274.97798779 218.47469299 274.97160258 220.07225524 274.95074463 221.66956902 C274.72701361 232.3632954 274.72701361 232.3632954 279.88339233 241.47344971 C281.23711218 242.70950996 282.60209841 243.93342975 283.98178101 245.14044189 C298.81521234 263.88372213 305.19003795 288.79395806 302.74740601 312.40606689 C301.65376959 320.63711993 299.96408134 328.32386184 296.55599976 335.94122314 C295.7660254 338.13661019 295.7660254 338.13661019 296.69662476 340.21856689 C297.98392976 342.14365522 299.31186237 343.85239844 300.85678101 345.57794189 C301.47810913 346.27274658 302.09943726 346.96755127 302.73959351 347.68341064 C306.43251474 351.73018322 310.1449021 355.75860742 313.86849976 359.77716064 C318.13605928 364.38326843 322.37395186 369.01644905 326.61410522 373.64776611 C328.00757252 375.16859065 329.40265852 376.68791514 330.79818726 378.20684814 C335.02701577 382.81118137 339.24581187 387.42320785 343.41928101 392.07794189 C346.39648136 395.39600239 349.39960344 398.68770047 352.42709351 401.95977783 C353.46110239 403.07757261 354.49366315 404.19670876 355.52474976 405.31719971 C357.85278172 407.84669597 360.191349 410.35886042 362.57162476 412.83966064 C369.71565402 420.41161845 375.28620331 428.35247646 374.98178101 439.14044189 C374.39285039 446.19533993 371.67765065 451.86006526 366.98178101 457.14044189 C358.62380187 463.94377986 351.6403968 464.90093589 340.98178101 464.14044189 C332.46967535 462.50816807 326.50600885 455.42660981 320.52914429 449.6272583 C318.39499044 447.5766119 316.19312208 445.60727696 313.98178101 443.64044189 C309.03587665 439.20673475 304.15891446 434.70100769 299.28256226 430.19122314 C294.19862652 425.48974041 289.0958163 420.80917344 283.98178101 416.14044189 C283.02400757 415.26516846 282.06623413 414.38989502 281.07943726 413.48809814 C280.18096069 412.67212158 279.28248413 411.85614502 278.35678101 411.01544189 C277.56014038 410.29098877 276.76349976 409.56653564 275.94271851 408.82012939 C274.0836422 407.09044865 274.0836422 407.09044865 271.98178101 406.14044189 C271.72525757 406.68571533 271.46873413 407.23098877 271.20443726 407.79278564 C267.93269461 414.23712721 262.91763497 422.51491194 255.70443726 424.89044189 C255.13596069 424.97294189 254.56748413 425.05544189 253.98178101 425.14044189 C253.95599976 425.81848877 253.93021851 426.49653564 253.90365601 427.19512939 C253.18834513 438.93273052 249.3642734 447.7579495 240.98178101 456.14044189 C230.14045675 464.68045685 216.45203899 465.84573384 203.2059021 467.64898682 C201.53315242 467.8821331 199.86049139 468.11591607 198.18791199 468.35028076 C193.65889509 468.98307716 189.12869869 469.60702474 184.59823942 470.22939849 C179.78888241 470.89169461 174.98069092 471.5623499 170.17236328 472.23207092 C161.01202272 473.50669671 151.85069289 474.77405939 142.68897307 476.03872901 C131.48625648 477.58546587 120.28477872 479.14109773 109.08334351 480.69708252 C97.2639001 482.33884188 85.44428657 483.97930771 73.62356567 485.61184692 C57.4183205 487.85078328 41.21392764 490.09256939 25.02144027 492.42226303 C22.9537044 492.71954425 20.8858258 493.01580975 18.81788826 493.31168461 C12.7438183 494.18103438 6.67085968 495.05660464 0.60003662 495.948349 C-16.27547344 498.39122642 -31.67290794 500.61693908 -46.73306274 490.85528564 C-57.09000002 483.08315665 -60.8497914 472.14575925 -62.69841003 459.71185303 C-63.23701744 455.90061983 -63.7332676 452.08460247 -64.22744751 448.26739502 C-64.51830693 446.11904856 -64.81081757 443.97092514 -65.10481358 441.82300568 C-65.74618635 437.11996082 -66.37826299 432.41578636 -67.00419998 427.71066284 C-68.04827849 419.88334826 -69.129066 412.06126429 -70.21594238 404.23980713 C-70.60352798 401.44811295 -70.99093074 398.65639343 -71.37824917 395.86466217 C-71.476081 395.15957615 -71.57391284 394.45449013 -71.67470927 393.72803786 C-72.8114326 385.53063922 -73.93751882 377.33178323 -75.06239319 369.13275146 C-75.16779147 368.36454667 -75.27318975 367.59634188 -75.38178191 366.80485815 C-76.14521217 361.23970502 -76.90800885 355.67446516 -77.67056274 350.10919189 C-77.78112752 349.30229439 -77.89169229 348.4953969 -78.00560752 347.66404796 C-80.21628448 331.52977488 -82.42505433 315.39524092 -84.63034725 299.26023102 C-85.10799921 295.76570774 -85.58567758 292.27118806 -86.06338501 288.77667236 C-86.1820417 287.90866617 -86.3006984 287.04065997 -86.42295075 286.14635056 C-88.35858018 271.98857599 -90.3031912 257.83204914 -92.25118928 243.67597169 C-94.26682134 229.02714685 -96.27379565 214.37715538 -98.27256018 199.72601938 C-99.38893473 191.54457736 -100.50906047 183.36368871 -101.63914299 175.18412781 C-102.5972242 168.24947298 -103.54748971 161.31380297 -104.48777281 154.37671149 C-104.96611191 150.84947723 -105.44797921 147.32282888 -105.94003487 143.79747963 C-111.98552815 100.4264257 -111.98552815 100.4264257 -101.76821899 86.32794189 C-91.23875657 73.80883582 -77.93838259 71.45616192 -62.51821899 69.39044189 C-60.94253931 69.16891262 -59.3670165 68.94626444 -57.79165649 68.72247314 C-46.53865169 67.14044189 -46.53865169 67.14044189 -44.01821899 67.14044189 C-44.04963989 65.59102905 -44.04963989 65.59102905 -44.08169556 64.01031494 C-44.15483728 60.12829803 -44.2002842 56.24634022 -44.23794556 52.36383057 C-44.25789399 50.69282748 -44.285063 49.02189266 -44.31997681 47.35113525 C-44.60983331 33.10980299 -43.30969401 21.91597401 -33.01821899 11.14044189 C-23.51415103 2.28842017 -12.57422423 -0.0114607 0 0 Z M-24.01821899 26.14044189 C-28.88822911 33.47945769 -28.57231741 41.35785713 -28.49491882 49.86039734 C-28.49611421 51.35009317 -28.49905858 52.83978844 -28.50359148 54.32947785 C-28.51088302 58.40597422 -28.4931952 62.48203175 -28.47123373 66.55846131 C-28.45186747 70.9613905 -28.45567191 75.36430966 -28.4564209 79.76727295 C-28.45407772 88.38620851 -28.42987705 97.00494932 -28.39760495 105.62381964 C-28.37169267 112.63009278 -28.35329762 119.63634774 -28.34023857 126.64265633 C-28.33836486 127.6404551 -28.33649116 128.63825387 -28.33456067 129.66628896 C-28.33077445 131.69341482 -28.32700001 133.7205407 -28.32323723 135.7476666 C-28.28697129 154.7498924 -28.2253117 173.75197245 -28.15544628 192.75410015 C-28.09619412 209.05092798 -28.06082642 225.3476692 -28.04238892 241.64459229 C-28.02096848 260.57803601 -27.98313598 279.51133816 -27.92037576 298.44469315 C-27.91373674 300.46459924 -27.90712515 302.48450542 -27.90054131 304.5044117 C-27.89730081 305.49819349 -27.89406031 306.49197529 -27.89072161 307.51587168 C-27.86909136 314.51141855 -27.85933538 321.5069239 -27.85432625 328.50250053 C-27.84796978 337.03124336 -27.82403667 345.55971906 -27.77760888 354.08834153 C-27.75439252 358.43798887 -27.73908304 362.7872744 -27.74545479 367.13698769 C-27.7510742 371.12266056 -27.73354368 375.10755109 -27.69793039 379.09306265 C-27.68907011 380.53102358 -27.6885058 381.96906599 -27.69730485 383.4070273 C-27.74825983 392.71827758 -26.87933654 400.44948268 -20.64655358 407.7462644 C-14.04760311 413.84528086 -6.32455072 414.58302719 2.17767334 414.52139282 C3.17792341 414.52607279 4.17817348 414.53075277 5.20873415 414.53557456 C8.54646835 414.54750063 11.88379015 414.53807638 15.2215271 414.52862549 C17.62024677 414.53269229 20.01896457 414.53803478 22.41767883 414.54455566 C28.24868672 414.55680505 34.0795645 414.55502578 39.91057633 414.54631774 C44.65239568 414.53953079 49.39418259 414.53862884 54.1360054 414.54188919 C55.14999393 414.54257874 55.14999393 414.54257874 56.18446708 414.54328222 C57.55794251 414.54424144 58.93141792 414.54521408 60.30489333 414.54619999 C73.17326052 414.55474717 86.04156351 414.54493101 98.90992017 414.52879889 C109.93716116 414.5154024 120.96430736 414.51771957 131.99154663 414.53155518 C144.81210852 414.5476334 157.63261416 414.55391686 170.45318472 414.54471838 C171.82209817 414.54376279 173.19101162 414.54281968 174.55992508 414.54188919 C175.23336507 414.54142636 175.90680506 414.54096354 176.60065233 414.54048669 C181.33244917 414.53790306 186.06421015 414.54225435 190.79600143 414.54932785 C197.17363272 414.55801071 203.55108553 414.55195121 209.92869759 414.53464508 C212.26593416 414.53068699 214.60318582 414.53180263 216.94041634 414.53843307 C220.1377857 414.54666547 223.33458788 414.536306 226.53192139 414.52139282 C227.45061835 414.52808499 228.36931531 414.53477715 229.31585157 414.54167211 C236.91257552 414.47323544 243.7893625 413.12817417 250.29428101 409.07794189 C253.80032623 405.24575293 256.41763089 401.12082038 257.98178101 396.14044189 C257.70059664 392.46850485 256.80496031 390.37841264 254.23178101 387.76544189 C253.74193726 387.24208252 253.25209351 386.71872314 252.74740601 386.17950439 C250.98650533 384.91170719 250.98650533 384.91170719 248.65756226 385.35528564 C245.72698743 386.21520614 242.82107128 387.12506157 239.91928101 388.07794189 C215.15828315 395.67757851 189.20883789 393.28190063 166.16928101 381.26544189 C161.05346746 378.33247548 156.50025519 374.91558114 151.98178101 371.14044189 C151.31533569 370.61966064 150.64889038 370.09887939 149.96224976 369.56231689 C133.97737425 356.57263502 123.92504929 335.26951019 120.98178101 315.14044189 C119.12516278 285.79050889 125.21149966 261.53739381 144.57553101 239.14044189 C160.74340871 222.02151256 183.49811786 212.1455515 206.91928101 210.93731689 C225.42856579 210.57967143 241.4395322 214.86931749 257.98178101 223.14044189 C257.98178101 202.02044189 257.98178101 180.90044189 257.98178101 159.14044189 C251.38178101 160.13044189 244.78178101 161.12044189 237.98178101 162.14044189 C231.98178101 162.14044189 231.98178101 162.14044189 230.15951538 160.88238525 C226.76704749 155.86471146 227.9512681 149.43878092 229.01303101 143.85528564 C229.48936837 141.59334107 229.97924271 139.33421001 230.48178101 137.07794189 C232.66769113 127.23013654 233.3631373 120.28323973 230.48178101 110.51544189 C225.06100409 92.0305926 227.76450103 72.40740164 235.98178101 55.14044189 C241.35671538 45.71960505 248.29037591 37.73479456 255.98178101 30.14044189 C252.28038882 24.01890867 248.08008647 19.25551921 240.98178101 17.14044189 C237.62038779 16.84889814 234.27095866 16.86643192 230.89868164 16.87974548 C229.36222443 16.87400716 229.36222443 16.87400716 227.79472768 16.86815292 C224.35784059 16.85782309 220.92112057 16.86181509 217.48422241 16.86578369 C215.02196599 16.8614372 212.55971093 16.85625427 210.09745789 16.85029602 C204.10062863 16.83828082 198.10386519 16.83575551 192.10702993 16.83809628 C187.23210846 16.83987956 182.35720058 16.83812959 177.48228073 16.83387184 C176.44140499 16.83297906 176.44140499 16.83297906 175.37950145 16.83206824 C173.96978224 16.83085648 172.56006303 16.82964235 171.15034382 16.82842586 C157.93015064 16.81754968 144.70998296 16.8197131 131.48978834 16.82581071 C119.39916526 16.83097916 107.30862277 16.81972647 95.21801563 16.80071249 C82.80010963 16.78133369 70.38224176 16.77307821 57.96432054 16.77683574 C50.99393396 16.77874782 44.02361597 16.77625962 37.05324173 16.7621212 C30.49839597 16.7489601 23.94368488 16.75146804 17.38883018 16.76453209 C14.98260507 16.76690183 12.57636866 16.76414901 10.17015648 16.75590897 C6.88619863 16.74547376 3.60278578 16.75351677 0.31884766 16.76622009 C-0.63397988 16.75884581 -1.58680741 16.75147152 -2.56850851 16.74387378 C-11.45747361 16.81624128 -17.94370626 19.52925809 -24.01821899 26.14044189 Z M271.98178101 39.14044189 C270.97244507 39.8191333 270.97244507 39.8191333 269.94271851 40.51153564 C256.55640748 50.04734408 246.90893721 63.77624484 243.98178101 80.14044189 C243.66361185 83.70728555 243.60151109 87.24812166 243.60678101 90.82794189 C243.60621704 91.79312744 243.60565308 92.75831299 243.60507202 93.75274658 C243.73442796 102.19269148 245.1719925 109.52086488 248.98178101 117.14044189 C248.91219981 126.22078734 246.75122863 135.27094655 244.98178101 144.14044189 C251.50860604 143.56030273 251.50860604 143.56030273 257.98178101 142.57794189 C266.85776932 141.28352693 272.08604251 142.30861945 280.04818726 146.60919189 C293.10510295 153.42451939 307.88277568 153.19381337 321.82162476 149.35919189 C338.34723146 143.85855953 350.74356395 133.4745099 358.98178101 118.14044189 C360.55014736 114.86604694 361.85106628 111.5894059 362.98178101 108.14044189 C363.20736694 107.47141846 363.43295288 106.80239502 363.66537476 106.11309814 C368.05804162 90.32979169 364.55908844 73.76668028 357.12631226 59.60528564 C348.72902386 45.34942396 335.15276588 36.2191985 319.55990601 31.39044189 C303.611889 27.53722973 285.64169966 29.88085277 271.98178101 39.14044189 Z M-62.33071899 85.89044189 C-63.96557251 86.12634033 -63.96557251 86.12634033 -65.63345337 86.36700439 C-74.93166919 87.82072425 -82.93401231 89.69472685 -88.86978149 97.41778564 C-94.21812964 105.44030787 -92.92766481 113.84918977 -91.63247681 122.88555908 C-91.47060977 124.06966118 -91.30874273 125.25376328 -91.14197063 126.47374725 C-90.69020328 129.76407397 -90.22979508 133.05298213 -89.76576495 136.34158802 C-89.26199208 139.92751261 -88.76954592 143.51499494 -88.27568054 147.10229492 C-87.40968074 153.38127904 -86.53659411 159.65924541 -85.65875244 165.93658447 C-84.37440188 175.12091788 -83.10020395 184.30663696 -81.82861149 193.49274445 C-80.21076229 205.17928129 -78.59033443 216.865457 -76.96418762 228.55084229 C-73.3158816 254.76844547 -69.6903513 280.98911884 -66.07846272 307.21176362 C-64.07550087 321.75310828 -62.06941355 336.29402185 -60.06303978 350.83489609 C-59.75842539 353.04257947 -59.45381227 355.25026304 -59.14920044 357.45794678 C-58.92379591 359.0915263 -58.92379591 359.0915263 -58.69383776 360.75810742 C-57.63245458 368.45112743 -56.57240758 376.14433092 -55.51272583 383.83758545 C-54.21223648 393.27837914 -52.90889854 402.71877497 -51.60216469 412.15870643 C-50.92971625 417.01700135 -50.25848474 421.87545628 -49.59050179 426.73436737 C-48.97476213 431.2130271 -48.3555667 435.69119517 -47.73366308 440.16900301 C-47.50881246 441.79236044 -47.28520978 443.41589133 -47.06299257 445.03961134 C-45.7530053 462.21631504 -45.7530053 462.21631504 -36.82681274 475.80450439 C-23.05760883 485.13131667 -6.41379034 480.528188 9.25619507 478.32647705 C11.46701484 478.0234471 13.67795606 477.72130207 15.88900757 477.41996765 C21.8527613 476.60460303 27.81472592 475.77679166 33.77641773 474.94650316 C40.03496938 474.07693216 46.2950545 473.21853967 52.55496216 472.35879517 C63.05982043 470.91444836 73.56364105 469.46273511 84.06674194 468.00567627 C94.84977831 466.50979714 105.63356693 465.01951592 116.41830444 463.53594971 C117.08320516 463.44448365 117.74810587 463.35301759 118.43315509 463.25877984 C121.10666032 462.89101538 123.78016694 462.52326105 126.45367636 462.15552709 C137.39380802 460.65057937 148.33331904 459.14112856 159.27274609 457.63106871 C161.7566272 457.28825227 164.24052728 456.94557333 166.7244463 456.60303164 C173.80511457 455.62654573 180.88545348 454.6477381 187.965271 453.66510201 C190.10525279 453.36842478 192.24534308 453.0725289 194.38555145 452.77749062 C216.61516247 451.25439356 216.61516247 451.25439356 234.64974976 440.10919189 C237.11361976 436.4099361 237.98178101 434.72278369 237.98178101 430.14044189 C236.69833392 430.13897533 235.41488684 430.13750877 234.09254742 430.13599777 C203.6002132 430.10026662 173.10799351 430.04398342 142.61574979 429.96252094 C138.85958676 429.95250394 135.10342329 429.94265973 131.34725952 429.93292236 C130.59950063 429.93098099 129.85174174 429.92903962 129.08132348 429.92703941 C116.98665486 429.89605028 104.89200519 429.87904739 92.79730435 429.86724767 C80.37949101 429.85482009 67.96177688 429.82728251 55.5440262 429.78582883 C47.88661198 429.76073929 40.22936238 429.74732128 32.57190648 429.74901232 C26.69209433 429.7490457 20.8124734 429.72801776 14.93272781 429.69927406 C12.52658961 429.69077391 10.12041631 429.68902588 7.71426964 429.69463921 C4.42032039 429.70129854 1.12736102 429.68331082 -2.16648865 429.65942383 C-3.5833688 429.67106445 -3.5833688 429.67106445 -5.02887279 429.68294024 C-16.36037205 429.53820307 -25.67736607 425.39302308 -33.70181274 417.48028564 C-39.75123308 410.85760353 -43.13193947 403.70751626 -43.15688419 394.71316147 C-43.16235864 393.60444427 -43.16783308 392.49572708 -43.17347342 391.35341239 C-43.17445152 390.13552409 -43.17542963 388.9176358 -43.17643738 387.6628418 C-43.18384434 385.72211143 -43.18384434 385.72211143 -43.19140095 383.74217439 C-43.20498453 380.14831764 -43.21240105 376.55447036 -43.21882761 372.96059465 C-43.22683057 369.08604351 -43.24052871 365.21151207 -43.25354004 361.3369751 C-43.27530425 354.62319302 -43.29344895 347.90940895 -43.30914497 341.19561005 C-43.33184409 331.4885482 -43.35998687 321.78150817 -43.38946425 312.07446483 C-43.43713963 296.325959 -43.48040397 280.57744425 -43.52090454 264.82891846 C-43.56025974 249.52943223 -43.60168602 234.22995393 -43.64590454 218.93048096 C-43.64862881 217.98764125 -43.65135309 217.04480154 -43.65415991 216.07339093 C-43.66783939 211.34350685 -43.68155967 206.6136229 -43.69530022 201.88373899 C-43.80926416 162.63598978 -43.9160737 123.38822355 -44.01821899 84.14044189 C-50.27084166 84.09839791 -56.1617271 84.92304001 -62.33071899 85.89044189 Z M153.57162476 252.96075439 C139.9043976 270.43837711 133.90449864 290.84511098 136.40756226 312.89044189 C139.00324697 327.92311901 145.07964718 340.5937229 154.98178101 352.14044189 C155.90217163 353.22905518 155.90217163 353.22905518 156.84115601 354.33966064 C169.84757716 368.48553323 188.93380957 376.01029589 207.77865601 377.42559814 C226.39923978 377.86986518 243.12087485 372.23258799 257.98178101 361.14044189 C258.71139038 360.59645752 259.44099976 360.05247314 260.19271851 359.49200439 C273.78055657 348.48209608 283.66429177 330.42837887 285.98178101 313.14044189 C287.81173975 292.22605566 284.13684738 272.63916202 271.04428101 255.76544189 C269.70951714 254.20694618 268.35608494 252.66418471 266.98178101 251.14044189 C266.39010132 250.45594971 265.79842163 249.77145752 265.18881226 249.06622314 C251.8134308 234.55008421 233.08916015 227.59388896 213.82162476 225.85528564 C191.05140862 225.15042027 168.27706832 235.75276371 153.57162476 252.96075439 Z M285.98178101 355.14044189 C284.10117961 357.14140178 282.25461073 359.16112368 280.41928101 361.20294189 C275.87682392 366.20141165 271.24350351 370.88463693 265.98178101 375.14044189 C267.3442992 378.22419064 268.85403946 380.21512473 271.32553101 382.49591064 C272.32181519 383.42258545 272.32181519 383.42258545 273.33822632 384.36798096 C274.04559937 385.01476807 274.75297241 385.66155518 275.48178101 386.32794189 C276.20720093 386.99922119 276.93262085 387.67050049 277.68002319 388.36212158 C282.27483949 392.60490741 286.90282884 396.81074213 291.56771851 400.97637939 C295.89657636 404.85694129 300.16850633 408.80008732 304.44955444 412.73321533 C306.95855207 415.03752736 309.47025157 417.3388901 311.98178101 419.64044189 C315.51811467 422.88111867 319.05264624 426.12373435 322.58480835 429.36895752 C324.08498454 430.74544257 325.58783541 432.11895507 327.09115601 433.49200439 C328.98523422 435.22738957 330.87100709 436.97189341 332.74740601 438.72637939 C333.60849976 439.52302002 334.46959351 440.31966064 335.35678101 441.14044189 C336.10701538 441.84169189 336.85724976 442.54294189 337.63021851 443.26544189 C341.22280924 446.12996606 344.38399794 448.17304971 349.04428101 448.07794189 C352.4249306 446.99901117 354.41093979 445.5643779 356.98178101 443.14044189 C358.54284428 440.01831535 358.78933738 437.48334967 357.98178101 434.14044189 C352.95123578 425.55797815 344.63046737 418.35521836 337.81771851 411.19122314 C334.17888319 407.36119479 330.62669678 403.46234934 327.11068726 399.51934814 C324.63081134 396.74825744 322.12171184 394.00466198 319.60678101 391.26544189 C319.1448938 390.76230469 318.68300659 390.25916748 318.2071228 389.74078369 C317.26787008 388.7179693 316.32849767 387.69526481 315.38900757 386.67266846 C312.63024282 383.66885036 309.87510477 380.66170356 307.12045288 377.65411377 C304.75804672 375.07540719 302.39224262 372.49994553 300.02084351 369.92950439 C299.53293335 369.39969971 299.04502319 368.86989502 298.54232788 368.32403564 C297.19234308 366.85833786 295.84101355 365.39387895 294.48959351 363.92950439 C292.67583559 361.91233437 290.93833592 359.88667522 289.22396851 357.78887939 C288.48404663 356.91489502 287.74412476 356.04091064 286.98178101 355.14044189 C286.65178101 355.14044189 286.32178101 355.14044189 285.98178101 355.14044189 Z " fill="#000000" transform="translate(120.01821899414063,6.85955810546875)"/>
<path d="M0 0 C16.2504122 -0.38161438 33.1521417 1.31639805 45.99609375 12.296875 C55.24303778 22.03767056 57.06353954 32.66101823 56.83984375 45.64453125 C56.48629255 52.78804065 53.63265352 57.55298052 49.1796875 62.96875 C39.49600211 70.8508195 31.44477097 72.46691605 19.12890625 72.45703125 C17.94174515 72.46131638 16.75458405 72.4656015 15.53144836 72.47001648 C13.02593624 72.47574549 10.52040748 72.47627061 8.01489258 72.47192383 C4.2029955 72.46876929 0.39187909 72.49222356 -3.41992188 72.51757812 C-5.86197819 72.51985195 -8.30403659 72.52055423 -10.74609375 72.51953125 C-11.87557938 72.528741 -13.005065 72.53795074 -14.16877747 72.54743958 C-23.63997209 72.49270353 -32.14967198 71.1325899 -39.68359375 65.03515625 C-47.40633118 57.08090206 -48.75953231 49.35454084 -48.66015625 38.69921875 C-48.20165934 28.03622647 -44.46385195 18.47511746 -36.5078125 11.15625 C-25.95875114 3.04009024 -12.99477878 0.57883202 0 0 Z M-26.5078125 25.15625 C-31.94658547 32.12903586 -32.2807633 38.53731911 -31.5078125 47.15625 C-30.34847208 50.41201428 -28.68067963 52.42508216 -25.70417786 54.28063965 C-23.05539452 55.33661246 -20.9664772 55.43741364 -18.1159668 55.47851562 C-17.03772141 55.49773071 -15.95947601 55.5169458 -14.84855652 55.53674316 C-13.68810318 55.54524292 -12.52764984 55.55374268 -11.33203125 55.5625 C-9.5342498 55.57960022 -9.5342498 55.57960022 -7.70014954 55.5970459 C-5.16414924 55.6159358 -2.62809995 55.62900988 -0.09204102 55.63671875 C3.78000893 55.65612631 7.64993301 55.71817375 11.52148438 55.78125 C13.98696657 55.79431126 16.45246394 55.80481173 18.91796875 55.8125 C20.0723494 55.8371936 21.22673004 55.86188721 22.41609192 55.8873291 C28.81315328 55.8520286 32.65996398 55.30898729 37.30534363 50.73864746 C40.932385 45.90277882 39.86557354 38.8627159 39.4921875 33.15625 C37.79545006 27.66680534 34.17418822 24.3086728 29.4921875 21.15625 C21.44749987 17.14943647 13.13106585 16.95189384 4.3046875 16.90625 C2.83805664 16.8753125 2.83805664 16.8753125 1.34179688 16.84375 C-8.65305061 16.79090216 -18.65792923 18.5467964 -26.5078125 25.15625 Z " fill="#000000" transform="translate(159.5078125,110.84375)"/>
<path d="M0 0 C4.44332488 4.42515177 5.48177492 8.35226156 5.875 14.5 C5.50829537 25.11209337 -1.34607042 32.27801711 -8.5546875 39.37109375 C-9.41885284 40.23767105 -10.28301819 41.10424835 -11.17337036 41.99708557 C-12.99120357 43.81394481 -14.81519992 45.62465659 -16.64501953 47.42944336 C-19.43816731 50.18815908 -22.2063904 52.97021642 -24.97265625 55.75585938 C-26.74856846 57.52487579 -28.5258657 59.29250308 -30.3046875 61.05859375 C-31.1278244 61.88669052 -31.9509613 62.71478729 -32.79904175 63.56797791 C-38.31320979 68.97078617 -43.28708249 73.13977284 -51.375 73.25 C-63.56332473 72.70015076 -71.28316665 63.9075021 -79.08496094 55.46533203 C-84.4341116 49.25529691 -85.9792789 43.99837829 -85.91015625 35.83203125 C-85.24429903 29.92909477 -82.25693936 26.35971739 -78.0625 22.375 C-72.34636622 18.65951305 -67.30689724 18.00302823 -60.5625 18.75 C-57.1875 20.25 -57.1875 20.25 -54.5625 21.75 C-50.53764396 22.17742589 -50.53764396 22.17742589 -48.09228516 19.6862793 C-47.18784668 18.74179932 -46.2834082 17.79731934 -45.3515625 16.82421875 C-44.8609433 16.32082474 -44.3703241 15.81743073 -43.86483765 15.29878235 C-42.29586067 13.68757028 -40.74061943 12.06399325 -39.1875 10.4375 C-37.64078532 8.82251952 -36.09118432 7.21089971 -34.53158569 5.60835266 C-33.11018079 4.14731978 -31.70051514 2.6748932 -30.29150391 1.2019043 C-21.61875241 -6.59022696 -9.1874525 -7.56416854 0 0 Z M-17.2069397 12.92015076 C-17.74273651 13.46784622 -18.27853333 14.01554169 -18.83056641 14.57983398 C-19.75139511 15.50595741 -19.75139511 15.50595741 -20.69082642 16.45079041 C-21.34199432 17.12574051 -21.99316223 17.80069061 -22.6640625 18.49609375 C-23.68057388 19.52465233 -23.68057388 19.52465233 -24.71762085 20.57398987 C-26.88386245 22.76927053 -29.03605095 24.97772853 -31.1875 27.1875 C-33.34860689 29.39107091 -35.5124998 31.59183564 -37.67880249 33.79029846 C-39.02683379 35.16007674 -40.37135782 36.5333169 -41.71206665 37.91026306 C-42.31964813 38.53083084 -42.92722961 39.15139862 -43.55322266 39.79077148 C-44.08742828 40.33926254 -44.62163391 40.8877536 -45.17202759 41.4528656 C-47.31964824 43.45632328 -48.74865674 43.78350821 -51.6875 44.3125 C-56.81612788 43.56802176 -58.42611503 41.26483749 -61.66796875 37.40234375 C-62.60576172 36.58443359 -62.60576172 36.58443359 -63.5625 35.75 C-65.7719003 35.89343599 -65.7719003 35.89343599 -67.5625 36.75 C-68.36568907 38.5425846 -68.36568907 38.5425846 -68.5625 40.75 C-67.28553496 42.80107621 -67.28553496 42.80107621 -65.30078125 44.67578125 C-64.59373047 45.38927734 -63.88667969 46.10277344 -63.15820312 46.83789062 C-62.40474609 47.57201172 -61.65128906 48.30613281 -60.875 49.0625 C-59.77381836 50.19268555 -59.77381836 50.19268555 -58.65039062 51.34570312 C-57.93689453 52.05275391 -57.22339844 52.75980469 -56.48828125 53.48828125 C-55.83255127 54.13837158 -55.17682129 54.78846191 -54.5012207 55.45825195 C-52.6870482 56.96488209 -52.6870482 56.96488209 -50.68673706 56.5528717 C-48.02926558 55.54845996 -46.64322359 54.20494315 -44.63598633 52.19580078 C-43.87872757 51.44477081 -43.12146881 50.69374084 -42.34126282 49.91995239 C-41.5338414 49.10332123 -40.72641998 48.28669006 -39.89453125 47.4453125 C-39.05911301 46.61039276 -38.22369476 45.77547302 -37.36296082 44.91525269 C-35.59847725 43.14842837 -33.83768671 41.37790938 -32.08032227 39.60400391 C-29.38391862 36.88399669 -26.67443672 34.17755941 -23.96289062 31.47265625 C-22.25181008 29.75599948 -20.54149722 28.03857709 -18.83203125 26.3203125 C-18.01853714 25.5077298 -17.20504303 24.69514709 -16.36689758 23.85794067 C-15.61909531 23.10060638 -14.87129303 22.34327209 -14.10083008 21.56298828 C-13.44004959 20.8976004 -12.7792691 20.23221252 -12.09846497 19.54666138 C-10.34460026 17.72313013 -10.34460026 17.72313013 -9.5625 14.75 C-10.2225 13.76 -10.8825 12.77 -11.5625 11.75 C-15.35569602 11.36348159 -15.35569602 11.36348159 -17.2069397 12.92015076 Z " fill="#000000" transform="translate(463.5625,64.25)"/>
<path d="M0 0 C0.84271957 -0.0071553 1.68543915 -0.01431061 2.55369568 -0.02168274 C5.3377818 -0.0385839 8.12026085 -0.01915953 10.90429688 0.00219727 C12.83956028 0.0013687 14.77482361 -0.00109024 16.71008301 -0.00511169 C20.76543366 -0.00797066 24.82023231 0.00674119 28.87548828 0.03417969 C34.07450408 0.06826259 39.27253271 0.06224518 44.47159576 0.04351711 C48.46763338 0.03295006 52.46344116 0.04188227 56.4594574 0.05690193 C58.37641213 0.06208637 60.29339083 0.06159878 62.21034241 0.05535698 C64.88945142 0.04990832 67.5671459 0.07026794 70.24609375 0.09765625 C71.03894272 0.09113037 71.83179169 0.08460449 72.64866638 0.07788086 C76.14109616 0.13861104 78.23727242 0.35528727 81.11326599 2.41152954 C82.72003249 4.77368497 83.13107568 5.86206722 83.15649414 8.67773438 C83.17233047 9.46212387 83.18816681 10.24651337 83.20448303 11.05467224 C83.19952316 11.893293 83.19456329 12.73191376 83.18945312 13.59594727 C83.1956517 14.4662709 83.20185028 15.33659454 83.20823669 16.23329163 C83.21533144 18.07153201 83.21216682 19.9098367 83.19946289 21.74804688 C83.18560917 24.5559767 83.21965508 27.36056516 83.2578125 30.16821289 C83.25876386 31.95662516 83.25690395 33.74504159 83.25195312 35.53344727 C83.26521133 36.37004379 83.27846954 37.20664032 83.29212952 38.06858826 C83.27332985 39.24990074 83.27332985 39.24990074 83.25415039 40.45507812 C83.25318863 41.14250595 83.25222687 41.82993378 83.25123596 42.53819275 C82.2131712 45.99666882 80.46539503 47.46094682 77.62304688 49.63110352 C74.63157662 50.12581983 72.21077106 50.31683212 69.22436523 50.27807617 C68.3912532 50.28683777 67.55814117 50.29559937 66.69978333 50.30462646 C63.95361833 50.32658365 61.20907117 50.31208276 58.46289062 50.29516602 C56.55147493 50.2985349 54.64006132 50.30338813 52.72865295 50.30966187 C48.72636482 50.31702792 44.72463525 50.30633512 40.72241211 50.28295898 C35.59166808 50.25445202 30.46223063 50.27088896 25.33153439 50.3008213 C21.38609461 50.31888506 17.44096491 50.31314084 13.49551582 50.30018234 C11.60367236 50.29684678 9.71180075 50.30094071 7.81999016 50.31258011 C5.17667882 50.32527598 2.53548731 50.30593204 -0.10766602 50.27807617 C-1.28055679 50.2932579 -1.28055679 50.2932579 -2.47714233 50.30874634 C-6.27963057 50.23448054 -8.02104571 49.95860137 -10.86143494 47.34494019 C-12.30306471 44.76341541 -12.88070633 43.45880274 -12.89453125 40.56274414 C-12.90713989 39.79845093 -12.91974854 39.03415771 -12.93273926 38.2467041 C-12.92464233 37.43511841 -12.91654541 36.62353271 -12.90820312 35.78735352 C-12.91203003 34.94064087 -12.91585693 34.09392822 -12.9197998 33.22155762 C-12.92251451 31.43634854 -12.91518419 29.65109939 -12.8984375 27.8659668 C-12.87702017 25.13963812 -12.89825265 22.41594437 -12.92382812 19.68969727 C-12.92118477 17.95141022 -12.91605962 16.21312481 -12.90820312 14.47485352 C-12.91630005 13.66326782 -12.92439697 12.85168213 -12.93273926 12.01550293 C-12.92013062 11.25120972 -12.90752197 10.4869165 -12.89453125 9.69946289 C-12.89134888 9.03281616 -12.8881665 8.36616943 -12.8848877 7.67932129 C-11.12132764 0.5678639 -6.49548485 -0.09578937 0 0 Z M4.62304688 16.63110352 C4.62304688 22.24110352 4.62304688 27.85110352 4.62304688 33.63110352 C25.08304687 33.63110352 45.54304688 33.63110352 66.62304688 33.63110352 C66.62304688 28.02110352 66.62304688 22.41110352 66.62304688 16.63110352 C46.16304688 16.63110352 25.70304687 16.63110352 4.62304688 16.63110352 Z " fill="#000000" transform="translate(244.376953125,44.368896484375)"/>
<path d="M0 0 C0.96465179 -0.00960754 1.92930359 -0.01921509 2.92318726 -0.02911377 C3.96383331 -0.03336365 5.00447937 -0.03761353 6.07666016 -0.04199219 C7.14816315 -0.04769226 8.21966614 -0.05339233 9.32363892 -0.05926514 C11.59156303 -0.06871456 13.85950088 -0.07524889 16.12744141 -0.07910156 C19.59513303 -0.08880955 23.06223259 -0.11983502 26.52978516 -0.15136719 C28.73290664 -0.15789709 30.93603235 -0.16314761 33.13916016 -0.16699219 C34.17575775 -0.17933899 35.21235535 -0.19168579 36.28036499 -0.20440674 C45.35374974 -0.17636209 45.35374974 -0.17636209 49.24072266 3.16113281 C50.45340384 5.58649517 50.39346358 7.18788392 50.43359375 9.89868164 C50.44965668 10.88342972 50.4657196 11.8681778 50.48226929 12.88276672 C50.52668061 17.38839062 50.56778234 21.89386668 50.59082031 26.3996582 C50.60738514 28.77703639 50.63468178 31.15436467 50.67285156 33.53149414 C50.72757521 36.95648069 50.74948808 40.3802994 50.76416016 43.80566406 C50.78682953 44.86727249 50.8094989 45.92888092 50.83285522 47.0226593 C50.81994706 51.52553258 50.68796359 54.37880735 48.42700195 58.33374023 C43.60322237 61.10027078 39.20651879 60.83813248 33.73681641 60.75488281 C32.62137955 60.7549231 31.50594269 60.75496338 30.35670471 60.75500488 C28.00231278 60.74965065 25.64792124 60.73207231 23.29370117 60.703125 C19.68759653 60.66124169 16.08335782 60.66205976 12.47705078 60.66894531 C10.18862633 60.65845378 7.90021151 60.64551589 5.61181641 60.62988281 C4.53258408 60.6296814 3.45335175 60.62947998 2.34141541 60.62927246 C1.33679764 60.6133606 0.33217987 60.59744873 -0.70288086 60.58105469 C-1.58492691 60.5726355 -2.46697296 60.56421631 -3.37574768 60.55554199 C-6.27337543 60.07606359 -7.64300854 59.17413697 -9.75927734 57.16113281 C-10.71346135 54.29858081 -10.89597532 52.46738653 -10.92041016 49.49365234 C-10.93482147 48.07670578 -10.93482147 48.07670578 -10.94952393 46.63113403 C-10.9537738 45.61236176 -10.95802368 44.59358948 -10.96240234 43.54394531 C-10.96810242 42.49463837 -10.97380249 41.44533142 -10.97967529 40.36422729 C-10.98912421 38.14338184 -10.99565884 35.92252237 -10.99951172 33.70166016 C-11.00921942 30.30639169 -11.04024519 26.911728 -11.07177734 23.51660156 C-11.0783073 21.35905307 -11.0835578 19.20150026 -11.08740234 17.04394531 C-11.09974915 16.0292215 -11.11209595 15.01449768 -11.12481689 13.96902466 C-11.09628771 4.92919812 -11.09628771 4.92919812 -7.75927734 1.16113281 C-4.87136826 0.19849645 -3.0039921 0.02416681 0 0 Z M6.24072266 17.16113281 C6.24072266 26.07113281 6.24072266 34.98113281 6.24072266 44.16113281 C15.15072266 44.16113281 24.06072266 44.16113281 33.24072266 44.16113281 C33.24072266 35.25113281 33.24072266 26.34113281 33.24072266 17.16113281 C24.33072266 17.16113281 15.42072266 17.16113281 6.24072266 17.16113281 Z " fill="#000000" transform="translate(121.75927734375,335.8388671875)"/>
<path d="M0 0 C0.96457626 -0.00953201 1.92915253 -0.01906403 2.92295837 -0.02888489 C4.47618553 -0.02751778 4.47618553 -0.02751778 6.06079102 -0.02612305 C7.13087906 -0.03040817 8.2009671 -0.0346933 9.30348206 -0.03910828 C11.56543267 -0.04484851 13.82740174 -0.0453541 16.08935547 -0.04101562 C19.54825362 -0.03785681 23.00629554 -0.06131546 26.46508789 -0.08666992 C28.66365452 -0.08894306 30.86222345 -0.08964634 33.06079102 -0.08862305 C34.09425156 -0.09783279 35.1277121 -0.10704254 36.19248962 -0.11653137 C45.23558465 -0.05832543 45.23558465 -0.05832543 49.12719727 3.2746582 C50.33987845 5.70002056 50.27993819 7.30140931 50.32006836 10.01220703 C50.33613129 10.99695511 50.35219421 11.98170319 50.3687439 12.99629211 C50.41315522 17.50191601 50.45425695 22.00739207 50.47729492 26.51318359 C50.49385975 28.89056178 50.52115639 31.26789006 50.55932617 33.64501953 C50.61404982 37.07000608 50.63596269 40.49382479 50.65063477 43.91918945 C50.67330414 44.98079788 50.69597351 46.04240631 50.71932983 47.13618469 C50.70645112 51.62878583 50.57194062 54.49187854 48.32714844 58.44287109 C43.44808857 61.23585089 38.93664797 60.98966442 33.40454102 60.9387207 C32.26690811 60.94350433 31.12927521 60.94828796 29.95716858 60.95321655 C27.55574152 60.95661467 25.15426815 60.94741865 22.75292969 60.92651367 C19.07390497 60.89972525 15.39792463 60.9262805 11.71899414 60.95825195 C9.38500302 60.95494833 7.0510138 60.94854308 4.71704102 60.9387207 C3.61593491 60.94884186 2.5148288 60.95896301 1.38035583 60.96939087 C-6.02647349 60.85546037 -6.02647349 60.85546037 -9.56835938 58.42480469 C-11.53043354 53.68652226 -11.40438668 49.28863255 -11.33374023 44.20825195 C-11.33282379 43.13720718 -11.33190735 42.06616241 -11.33096313 40.96266174 C-11.32493047 38.70243894 -11.30919464 36.44222402 -11.28442383 34.18212891 C-11.24789749 30.72113625 -11.24340474 27.26121419 -11.24389648 23.80004883 C-11.23406572 21.60277394 -11.22240891 19.40550631 -11.20874023 17.20825195 C-11.20651459 16.17276718 -11.20428894 15.13728241 -11.20199585 14.07041931 C-11.18923615 13.10584305 -11.17647644 12.14126678 -11.16333008 11.14746094 C-11.15570648 10.30094467 -11.14808289 9.45442841 -11.14022827 8.58226013 C-10.83963276 5.98843609 -10.33654011 4.43780929 -8.87280273 2.2746582 C-5.93056048 0.28213096 -3.50550443 0.01907965 0 0 Z M6.12719727 17.2746582 C6.12719727 26.1846582 6.12719727 35.0946582 6.12719727 44.2746582 C15.03719727 44.2746582 23.94719727 44.2746582 33.12719727 44.2746582 C33.12719727 35.3646582 33.12719727 26.4546582 33.12719727 17.2746582 C24.21719727 17.2746582 15.30719727 17.2746582 6.12719727 17.2746582 Z " fill="#000000" transform="translate(121.872802734375,196.725341796875)"/>
<path d="M0 0 C0.98467255 -0.01606293 1.96934509 -0.03212585 2.9838562 -0.04867554 C7.47686005 -0.09317759 11.96971803 -0.13417187 16.46289062 -0.15722656 C18.83343308 -0.17380378 21.20392519 -0.20111666 23.57421875 -0.23925781 C26.99261391 -0.29397117 30.40983949 -0.31589086 33.82861328 -0.33056641 C34.88708466 -0.35323578 35.94555603 -0.37590515 37.03610229 -0.39926147 C41.54932316 -0.38628151 44.37017402 -0.25903865 48.3215332 2.03393555 C51.04300334 6.73842481 50.80853254 10.91465034 50.70751953 16.25927734 C50.70402245 17.8658445 50.70402245 17.8658445 50.70045471 19.50486755 C50.69072611 21.76512639 50.66895964 24.02536114 50.63598633 26.28540039 C50.58655305 29.74646056 50.57450311 33.20609903 50.56884766 36.66748047 C50.5547622 38.86476123 50.538558 41.06202964 50.52001953 43.25927734 C50.51465683 44.29476212 50.50929413 45.33024689 50.50376892 46.39710999 C50.48778152 47.36168625 50.47179413 48.32626251 50.45532227 49.32006836 C50.43936256 50.58984276 50.43936256 50.58984276 50.42308044 51.88526917 C50.11892519 54.44539071 49.53881995 56.02722542 48.14892578 58.19287109 C44.89331925 60.36327545 43.95734177 60.44796759 40.19018555 60.4675293 C38.67830406 60.48182732 38.67830406 60.48182732 37.13587952 60.49641418 C36.04834885 60.49550278 34.96081818 60.49459137 33.84033203 60.49365234 C32.72206528 60.49793747 31.60379852 60.5022226 30.4516449 60.50663757 C28.08536456 60.5123837 25.71906655 60.51287907 23.3527832 60.50854492 C19.72918602 60.50538657 16.10640625 60.52883598 12.48291016 60.55419922 C10.18538515 60.5564723 7.88785794 60.55717567 5.59033203 60.55615234 C4.50482559 60.56536209 3.41931915 60.57457184 2.30091858 60.58406067 C1.28984543 60.57783188 0.27877228 60.57160309 -0.76293945 60.56518555 C-1.65101791 60.56581497 -2.53909637 60.5664444 -3.4540863 60.5670929 C-6.37214758 60.11152024 -7.72655213 59.21964737 -9.85107422 57.19287109 C-10.80525822 54.33031909 -10.98777219 52.49912481 -11.01220703 49.52539062 C-11.02661835 48.10844406 -11.02661835 48.10844406 -11.0413208 46.66287231 C-11.04557068 45.64410004 -11.04982056 44.62532776 -11.05419922 43.57568359 C-11.05989929 42.52637665 -11.06559937 41.4770697 -11.07147217 40.39596558 C-11.08092108 38.17512012 -11.08745572 35.95426065 -11.09130859 33.73339844 C-11.10101629 30.33812997 -11.13204206 26.94346628 -11.16357422 23.54833984 C-11.17010417 21.39079136 -11.17535467 19.23323854 -11.17919922 17.07568359 C-11.19154602 16.06095978 -11.20389282 15.04623596 -11.21661377 14.00076294 C-11.18808458 4.9609364 -11.18808458 4.9609364 -7.85107422 1.19287109 C-4.95070072 0.22607993 -3.02164332 0.04484651 0 0 Z M6.14892578 17.19287109 C6.14892578 26.10287109 6.14892578 35.01287109 6.14892578 44.19287109 C15.05892578 44.19287109 23.96892578 44.19287109 33.14892578 44.19287109 C33.14892578 35.28287109 33.14892578 26.37287109 33.14892578 17.19287109 C24.23892578 17.19287109 15.32892578 17.19287109 6.14892578 17.19287109 Z " fill="#000000" transform="translate(121.85107421875,266.80712890625)"/>
<path d="M0 0 C6.76671443 5.5202144 10.94008632 12.74383179 12 21.421875 C12.4662544 29.63960879 9.7353332 37.33490087 4.625 43.75 C-1.33981099 50.0104805 -8.93814718 52.95838409 -17.4375 53.625 C-26.82934104 53.00914157 -34.49718594 49.74459146 -40.78515625 42.640625 C-45.60180999 36.29331454 -47.66113565 28.94817216 -47.07421875 20.9921875 C-45.67316918 11.96320141 -41.74248349 4.84960697 -34.375 -0.625 C-23.50295817 -7.55246294 -10.68660119 -7.35597788 0 0 Z M-28.0625 15 C-29.90927848 18.69355696 -30.48606866 22.25452885 -30.25 26.375 C-28.12547226 30.78748069 -25.8062994 33.51105934 -21.25 35.375 C-17.25695366 35.95934824 -14.16883924 35.76295434 -10.4375 34.1875 C-6.51007719 30.93334967 -5.37865911 28.53293195 -4.8125 23.4375 C-4.99005873 19.1599487 -6.43986254 16.64083542 -9.25 13.375 C-12.00651101 11.1988071 -13.70399829 10.44470235 -17.1875 10 C-21.60491103 10.54090747 -24.74950408 12.0297278 -28.0625 15 Z " fill="#000000" transform="translate(181.25,50.625)"/>
<path d="M0 0 C3.17766527 2.07239039 6.08543672 4.36838655 9.046875 6.73828125 C17.91037092 13.5265936 28.96840055 16.01904804 40 15 C50.05351341 13.39628942 59.26384586 9.72953779 66.6875 2.625 C69.17271442 0.35485221 70.80384079 -0.45084107 74.1875 -0.625 C78 0 78 0 80.5 1.5625 C82.68071663 5.10616452 82.75331723 6.89099694 82 11 C75.83029658 21.30989913 63.2710913 27.45882043 52.03955078 30.53735352 C33.47828978 35.10950364 16.26529503 31.45525801 0 22 C-10.18101507 14.99483431 -10.18101507 14.99483431 -12 10 C-11.82357605 6.64794489 -11.56269287 4.02608699 -9.9375 1.0625 C-6.48898993 -0.82861843 -3.70004249 -1.04360173 0 0 Z " fill="#000000" transform="translate(296,339)"/>
<path d="M0 0 C0.802099 -0.00511093 1.604198 -0.01022186 2.43060303 -0.01548767 C5.07954387 -0.02937693 7.72822435 -0.02842744 10.37719727 -0.02612305 C12.22038367 -0.0300103 14.06356919 -0.03434503 15.90675354 -0.03910828 C19.76940821 -0.04656902 23.63197147 -0.04628023 27.49462891 -0.04101562 C32.44227358 -0.0352207 37.38954394 -0.05215322 42.33712673 -0.0753603 C46.14356165 -0.09009853 49.94990643 -0.09096922 53.75636482 -0.08785057 C55.58040165 -0.08836372 57.40444353 -0.09360031 59.22845268 -0.10366249 C61.78015278 -0.11601158 64.3311239 -0.10924466 66.8828125 -0.09765625 C67.63466324 -0.10529999 68.38651398 -0.11294373 69.16114807 -0.12081909 C73.61012347 -0.07620443 76.47179782 0.51963564 80.00610352 3.2746582 C81.53457013 6.33159143 81.23852797 8.90450367 81.00610352 12.2746582 C79.24595221 15.4596939 78.50719435 16.10762792 75.00610352 17.2746582 C72.37076761 17.38106962 69.76148727 17.43190122 67.12573242 17.43579102 C66.32377945 17.44075592 65.52182648 17.44572083 64.6955719 17.45083618 C62.04126123 17.46544721 59.38701031 17.4722578 56.73266602 17.4777832 C54.88805133 17.48353523 53.04343667 17.48929295 51.19882202 17.49505615 C47.33021771 17.50556292 43.46163416 17.51140781 39.59301758 17.51489258 C34.63752231 17.5203787 29.68230161 17.54441061 24.72689247 17.57286453 C20.91618041 17.59149335 17.10553448 17.59669663 13.29478073 17.59822845 C11.46794508 17.60125462 9.64111057 17.60928192 7.81431961 17.62241364 C5.25775533 17.63948041 2.7018619 17.63759255 0.14526367 17.63110352 C-0.984869 17.64492569 -0.984869 17.64492569 -2.13783264 17.6590271 C-6.5895905 17.62365533 -9.4605292 17.04022392 -12.99389648 14.2746582 C-14.37827743 10.88675106 -14.31481666 7.38329154 -13.30639648 3.8996582 C-9.82757904 -0.40744911 -5.13504154 -0.016875 0 0 Z " fill="#000000" transform="translate(245.993896484375,165.725341796875)"/>
<path d="M0 0 C0.84271957 -0.0071553 1.68543915 -0.01431061 2.55369568 -0.02168274 C5.3377818 -0.0385839 8.12026085 -0.01915953 10.90429688 0.00219727 C12.83956028 0.0013687 14.77482361 -0.00109024 16.71008301 -0.00511169 C20.76543366 -0.00797066 24.82023231 0.00674119 28.87548828 0.03417969 C34.07450408 0.06826259 39.27253271 0.06224518 44.47159576 0.04351711 C48.46763338 0.03295006 52.46344116 0.04188227 56.4594574 0.05690193 C58.37641213 0.06208637 60.29339083 0.06159878 62.21034241 0.05535698 C64.88945142 0.04990832 67.5671459 0.07026794 70.24609375 0.09765625 C71.03894272 0.09113037 71.83179169 0.08460449 72.64866638 0.07788086 C76.16623341 0.13904815 78.2346153 0.34724216 81.1114502 2.44960022 C83.36075278 5.69574456 83.23163534 7.77670992 82.62304688 11.63110352 C79.87086566 15.29554013 78.39383146 16.50509039 73.82176208 17.25256348 C72.32007784 17.27606226 70.81780777 17.27218519 69.31616211 17.24633789 C68.08112442 17.25466141 68.08112442 17.25466141 66.82113647 17.26315308 C64.10737383 17.27493645 61.39528573 17.25069057 58.68164062 17.22485352 C56.79264909 17.22314215 54.90365518 17.22320836 53.0146637 17.22497559 C49.05943016 17.22332315 45.10476396 17.20463759 41.1496582 17.1730957 C36.07969444 17.13339117 31.01047271 17.12905405 25.94038296 17.13655853 C22.04129741 17.13962758 18.14237873 17.12751046 14.24333382 17.11042786 C12.37383127 17.10339695 10.50430981 17.10027343 8.63479424 17.10112 C6.02302719 17.09932261 3.41215026 17.07794726 0.80053711 17.05102539 C0.02796066 17.05395599 -0.74461578 17.0568866 -1.54060364 17.05990601 C-4.76547085 17.00860565 -7.01336959 16.83907524 -9.84117126 15.22155762 C-11.63932835 13.35938801 -12.05920485 12.30801938 -12.37695312 9.75610352 C-12.48007813 9.09868164 -12.58320313 8.44125977 -12.68945312 7.76391602 C-11.6270549 0.51304813 -6.21049968 -0.09158668 0 0 Z " fill="#000000" transform="translate(244.376953125,137.368896484375)"/>
<path d="M0 0 C0.832966 -0.00686325 1.66593201 -0.0137265 2.5241394 -0.02079773 C5.27538128 -0.03908766 8.02605418 -0.03522554 10.77734375 -0.02954102 C12.69018744 -0.03410142 14.60302948 -0.03940657 16.51586914 -0.04542542 C20.52399352 -0.05436056 24.53191868 -0.05192838 28.54003906 -0.04199219 C33.6784663 -0.03049569 38.81620703 -0.05072237 43.95454407 -0.07990932 C47.90421928 -0.09824659 51.85372919 -0.09798392 55.80343628 -0.0922718 C57.69807906 -0.09211832 59.59273286 -0.098185 61.48733521 -0.11056328 C64.13522561 -0.12542677 66.78183736 -0.11483137 69.4296875 -0.09765625 C70.21318573 -0.10732422 70.99668396 -0.11699219 71.80392456 -0.12695312 C75.3057291 -0.07934418 77.33751413 0.12840252 80.20141602 2.2205658 C82.43291752 5.44004849 82.25200553 7.57677507 81.71484375 11.40405273 C80.20715332 14.08627319 80.20715332 14.08627319 77.71484375 16.40405273 C74.73352473 16.90788955 72.31939745 17.08908597 69.33789062 17.05102539 C68.49517105 17.05978699 67.65245148 17.06854858 66.78419495 17.07757568 C64.00013657 17.09957229 61.2176681 17.08501653 58.43359375 17.06811523 C56.4983286 17.0714833 54.56306552 17.07633585 52.62780762 17.08261108 C48.5724676 17.08998276 44.51767833 17.0792674 40.46240234 17.0559082 C35.26325392 17.02742028 30.06539593 17.04382267 24.86629486 17.07377052 C20.87024201 17.09183552 16.87449528 17.08608913 12.87843323 17.07313156 C10.96147001 17.06979534 9.04447902 17.07389221 7.12754822 17.08552933 C4.44821532 17.09822504 1.77097389 17.07888029 -0.90820312 17.05102539 C-2.09747658 17.06620712 -2.09747658 17.06620712 -3.31077576 17.08169556 C-7.22737029 17.00623183 -8.91701372 16.75795 -11.78918457 13.99691772 C-13.33257862 11.3218588 -13.75487339 10.27349949 -13.28515625 7.27905273 C-13.20265625 6.61647461 -13.12015625 5.95389648 -13.03515625 5.27124023 C-10.74157331 -0.43882563 -5.32480497 -0.03059407 0 0 Z " fill="#000000" transform="translate(245.28515625,108.595947265625)"/>
<path d="M0 0 C1.30815674 -0.01253311 2.61631348 -0.02506622 3.96411133 -0.03797913 C5.38884476 -0.02571084 6.81356867 -0.01229082 8.23828125 0.00219727 C9.70271989 0.00136838 11.16715844 -0.00109176 12.6315918 -0.00511169 C15.69836485 -0.00796842 18.76440705 0.00671759 21.83105469 0.03417969 C25.75895453 0.06826368 29.68554773 0.06224388 33.61351013 0.04351711 C36.63678853 0.03294029 39.6597637 0.04189084 42.68301392 0.05690193 C44.13106383 0.06207929 45.57914548 0.06160731 47.02719116 0.05535698 C49.05202334 0.04989769 51.07687132 0.07314567 53.1015625 0.09765625 C54.25309814 0.10385483 55.40463379 0.11005341 56.59106445 0.11643982 C60.19498646 0.74312404 61.38045964 1.73016513 63.55078125 4.63110352 C64.11328125 8.06860352 64.11328125 8.06860352 63.55078125 11.63110352 C61.04674361 14.77334184 59.5333428 16.42296846 55.5534668 17.26602173 C54.44269775 17.26999969 53.33192871 17.27397766 52.1875 17.27807617 C50.29028198 17.30171738 50.29028198 17.30171738 48.35473633 17.32583618 C46.98257574 17.31688608 45.61042313 17.306631 44.23828125 17.29516602 C42.82250553 17.29853693 41.40673264 17.30339185 39.9909668 17.30966187 C37.0285274 17.31702046 34.06684351 17.30636209 31.10449219 17.28295898 C27.31440599 17.25446975 23.52609002 17.27087945 19.73606873 17.3008213 C16.81395217 17.31892292 13.89225268 17.31312359 10.97012329 17.30018234 C9.57312814 17.29685614 8.17609464 17.30090783 6.77914429 17.31258011 C4.82412478 17.32533199 2.86897182 17.30243627 0.9140625 17.27807617 C-0.75209106 17.27210922 -0.75209106 17.27210922 -2.4519043 17.26602173 C-6.41840488 16.42580176 -7.93567405 14.74392981 -10.44921875 11.63110352 C-11.15901688 7.84551348 -10.83797736 6.26186581 -8.81713867 2.98304749 C-5.7536541 -0.05976828 -4.26567208 0.00356269 0 0 Z " fill="#000000" transform="translate(194.44921875,376.368896484375)"/>
<path d="M0 0 C0.93928345 -0.00004028 1.87856689 -0.00008057 2.84631348 -0.00012207 C4.83006489 0.00523385 6.81381571 0.02281969 8.79736328 0.05175781 C11.83301669 0.09360205 14.86645067 0.09282719 17.90234375 0.0859375 C19.83074458 0.09643056 21.75913397 0.10936929 23.6875 0.125 C24.59487915 0.12520142 25.5022583 0.12540283 26.43713379 0.12561035 C32.68098415 0.24281421 32.68098415 0.24281421 35.89257812 1.94335938 C38.05691867 4.40482338 38.21436182 6.35904553 38.34375 9.59375 C37.29477418 13.43999466 36.73837539 14.33066641 33.34375 16.59375 C31.42214966 16.86790466 31.42214966 16.86790466 29.22705078 16.90014648 C28.40254425 16.91613388 27.57803772 16.93212128 26.72854614 16.94859314 C25.39725174 16.95663719 25.39725174 16.95663719 24.0390625 16.96484375 C22.66486649 16.97838646 22.66486649 16.97838646 21.26290894 16.99220276 C19.3245572 17.00671085 17.38615642 17.01559338 15.44775391 17.01928711 C12.4864623 17.03117887 9.52725769 17.08035392 6.56640625 17.13085938 C4.68230183 17.14032427 2.79818462 17.14755899 0.9140625 17.15234375 C0.03058136 17.17187607 -0.85289978 17.19140839 -1.76315308 17.21153259 C-6.21649113 17.17895457 -8.07873514 17.03634568 -11.71923828 14.24633789 C-13.65625 11.59375 -13.65625 11.59375 -14.21875 8.59375 C-12.61893811 0.06141992 -7.44388347 -0.13450213 0 0 Z " fill="#000000" transform="translate(197.65625,237.40625)"/>
<path d="M0 0 C1.17798912 -0.0049926 1.17798912 -0.0049926 2.379776 -0.01008606 C4.03988052 -0.01514588 5.6999952 -0.01749468 7.36010742 -0.01733398 C9.89714338 -0.01952004 12.43374412 -0.03768421 14.97070312 -0.05664062 C16.58463393 -0.05957484 18.1985668 -0.06155945 19.8125 -0.0625 C20.56989975 -0.06968552 21.3272995 -0.07687103 22.10765076 -0.08427429 C25.86861239 -0.06799446 28.82401272 -0.01735318 31.97265625 2.16796875 C34.06945028 4.86384678 33.96776446 6.26091275 33.78515625 9.73046875 C32.99753343 13.06271914 32.67584012 14.22167636 29.97265625 16.16796875 C26.8465197 17.73103702 23.51105002 17.35193353 20.078125 17.37109375 C19.29375565 17.37679382 18.50938629 17.3824939 17.70124817 17.3883667 C16.03937124 17.39782015 14.37747553 17.40435205 12.71557617 17.40820312 C10.18049087 17.41789104 7.64622246 17.44890279 5.11132812 17.48046875 C3.49609856 17.48700072 1.8808632 17.49225043 0.265625 17.49609375 C-0.48975052 17.50844055 -1.24512604 17.52078735 -2.02339172 17.5335083 C-6.53417925 17.51454619 -9.44929355 16.97797382 -13.02734375 14.16796875 C-14.16979516 11.54252752 -14.22676946 9.00978516 -14.02734375 6.16796875 C-12.77734375 3.23046875 -12.77734375 3.23046875 -11.02734375 1.16796875 C-7.31749449 -0.06864767 -3.86436083 0.00566265 0 0 Z " fill="#000000" transform="translate(198.02734375,200.83203125)"/>
<path d="M0 0 C1.24033241 -0.00361794 1.24033241 -0.00361794 2.50572205 -0.00730896 C4.24808565 -0.0063323 5.99048098 0.00701814 7.73266602 0.03198242 C10.39771901 0.06634662 13.05946416 0.05262086 15.72460938 0.03320312 C17.42058701 0.04010056 19.1165561 0.04977202 20.8125 0.0625 C21.6073732 0.05754013 22.4022464 0.05258026 23.22120667 0.04747009 C26.79168706 0.12343365 28.91597887 0.3116872 31.81420898 2.48071289 C33.81044461 5.29154298 34.26954961 7.18449351 34.33984375 10.62890625 C33.0764393 13.71722823 32.16537696 15.19660929 29.19335938 16.75292969 C25.69664972 17.82635493 22.42925993 17.91607645 18.80859375 17.89453125 C18.09505737 17.8964447 17.381521 17.89835815 16.6463623 17.90032959 C15.14363246 17.90168547 13.64089067 17.89803084 12.13818359 17.88964844 C9.84706134 17.87893998 7.55672307 17.88956354 5.265625 17.90234375 C3.80077953 17.90102205 2.33593455 17.89845943 0.87109375 17.89453125 C0.19075073 17.89857971 -0.48959229 17.90262817 -1.19055176 17.90679932 C-5.10785336 17.86846165 -8.16544122 17.43768799 -11.66015625 15.62890625 C-14.02410483 12.47697481 -14.209025 9.4709875 -13.66015625 5.62890625 C-9.59911037 0.2060247 -6.32280757 -0.10573149 0 0 Z " fill="#000000" transform="translate(197.66015625,339.37109375)"/>
<path d="M0 0 C2.03008003 -0.00218575 4.05961572 -0.02035323 6.08959961 -0.03930664 C7.37157227 -0.04124023 8.65354492 -0.04317383 9.97436523 -0.04516602 C11.14926514 -0.0492749 12.32416504 -0.05338379 13.53466797 -0.05761719 C16.50190277 0.17727808 18.13900204 0.57312002 20.60327148 2.18530273 C22.65278113 4.82038656 22.60124378 6.29885393 22.54077148 9.68530273 C21.39604433 13.95895079 20.29048138 14.8467724 16.60327148 17.18530273 C13.45288086 17.68701172 13.45288086 17.68701172 9.94702148 17.68139648 C8.04243164 17.68236328 8.04243164 17.68236328 6.09936523 17.68334961 C4.7806543 17.66336914 3.46194336 17.64338867 2.10327148 17.62280273 C0.12520508 17.6334375 0.12520508 17.6334375 -1.89282227 17.64428711 C-12.84854893 17.57199044 -12.84854893 17.57199044 -17.39672852 14.18530273 C-18.53917993 11.5598615 -18.59615423 9.02711915 -18.39672852 6.18530273 C-17.14672852 3.24780273 -17.14672852 3.24780273 -15.39672852 1.18530273 C-10.41316696 -0.47588445 -5.21843993 -0.00063078 0 0 Z " fill="#000000" transform="translate(202.396728515625,269.814697265625)"/>
<path d="M0 0 C0.69177841 0.01639526 1.38355682 0.03279053 2.09629822 0.04968262 C3.17584023 0.04962219 3.17584023 0.04962219 4.27719116 0.04956055 C5.79437522 0.05490908 7.31155919 0.07246399 8.82847595 0.10144043 C11.15103176 0.14336294 13.47069283 0.14250343 15.79356384 0.13562012 C17.26949545 0.14611107 18.74541213 0.15904869 20.22129822 0.17468262 C20.91510086 0.17488403 21.6089035 0.17508545 22.32373047 0.17529297 C25.15654368 0.2449023 27.13191674 0.32492791 29.49839783 1.96179199 C31.34160528 4.79509101 31.47748283 7.31106759 31.59239197 10.64343262 C30.24676797 13.59098994 29.50684653 15.18620534 26.59239197 16.64343262 C22.22260285 16.9249866 17.84917309 16.95707875 13.47154236 16.99353027 C12.01565039 17.01007266 10.55983907 17.03734098 9.10435486 17.07556152 C6.99968074 17.13051385 4.8969069 17.15222878 2.79161072 17.16687012 C1.53179382 17.18668945 0.27197693 17.20650879 -1.02601624 17.22692871 C-5.30685671 16.48826661 -6.75864993 15.01596164 -9.40760803 11.64343262 C-10.11085614 7.89277602 -9.78115031 6.27557213 -7.84144592 2.99304199 C-5.14225362 0.3872614 -3.69702316 0.05286979 0 0 Z " fill="#000000" transform="translate(193.40760803222656,306.3565673828125)"/>
</svg>
